<svg xmlns="http://www.w3.org/2000/svg" viewBox="0 0 2000 2000"><defs><style>.cls-1{fill:#66f;}.cls-2,.cls-9{fill:#f1c4a4;}.cls-11,.cls-12,.cls-14,.cls-2,.cls-5,.cls-6,.cls-8{stroke:#000;stroke-miterlimit:10;}.cls-2{stroke-width:5px;}.cls-3{fill:#e9a270;}.cls-4{fill:#f6d7c2;}.cls-5{fill:#231f20;}.cls-11,.cls-12,.cls-14,.cls-5,.cls-6{stroke-width:2px;}.cls-11,.cls-7{fill:#fff;}.cls-14,.cls-8{fill:#653325;}.cls-8{stroke-width:4px;}.cls-10{fill:#3c3129;}.cls-12{fill:#d37173;}.cls-13{fill:#f3beb6;}</style></defs><g id="back"><rect class="cls-1" width="2000" height="2000"/></g><g id="mainHead"><path class="cls-2" d="M529.36,477.29c11-17.14,36.19-55.94,72-93.86,70.95-75.15,150.19-111.41,180-124.72,56.94-25.42,188.44-84.12,345.85-45,117.88,29.3,191.43,98.83,237.86,142.72,44.64,42.19,96.68,91.39,124.72,172.28,14,40.5,19.43,81.38,29.57,158.15,5.62,42.57,7.57,69.39,11.57,115.71,4.29,49.62,10.89,121.1,20.57,209.57a11.28,11.28,0,0,0,3.64.86,14.31,14.31,0,0,0,5.79-1.07,56.29,56.29,0,0,0,6.86-2.57c8.6-4.15,12-7.59,18.85-10.5a48,48,0,0,1,10.29-3c13.3-2.15,24.55,4,27.43,5.57,16.39,9,22.34,27.45,26.14,39.86,8.5,27.72,5.11,51.33,2.14,70.5-4.75,30.73-14.34,53-23.14,73.07a403.54,403.54,0,0,1-31.5,58.28,94,94,0,0,1-.64,22.93,97.41,97.41,0,0,1-7.72,25.5c-13.71,31.37-20.57,47-28.07,55.93-21,24.89-45.84,32.61-54.64,34.07a38.42,38.42,0,0,1-11.79.64,83.83,83.83,0,0,1-19.71-5.35,14.77,14.77,0,0,0-7.72-1.07c-2.23.32-3,1-3.21,1.28-1.83,1.93-.8,5.64-.43,7.07,1.63,6.39.4,13.22,1.5,19.72,0,0,1.63,9.58.43,40.28-1,24.4-22.67,82.5-76.5,152.36-22,28.59-43,49.28-84.86,90.64-34.2,33.78-45.58,41.65-58.5,47.57-8.07,3.71-20.37,8.33-36,19.29-9.16,6.43-12.66,10.26-25.71,21.21-15.47,13-28.83,23-35.36,27.65-25,18-39,28.05-59.78,34.07-15,4.33-28.64,4.39-55.93,4.5-24.25.1-39.55.16-56.57-3.86-19.08-4.5-35.77-13-66.22-36.64a675.52,675.52,0,0,1-90-84.22c-5.44-3-13.33-7.46-22.5-13.5a319.5,319.5,0,0,1-35.36-27c-50-43.6-75.06-65.4-85.5-77.14-48-54-70.07-107.54-76.5-124.07a397.71,397.71,0,0,1-21.21-76.5,62.94,62.94,0,0,1-31.5,0c-24.65-6.72-37.82-28.37-49.5-48.21-16.83-28.6-8.57-30.75-30.21-74.58-10.72-21.7-16.32-28.39-20.58-45.64-1.65-6.68-3.35-16-9-28.28-3.78-8.25-6.59-11.86-11.57-19.93s-16.13-26.17-22.5-45.65a126.36,126.36,0,0,1-6.43-39.21c.09-14.9.18-29.64,10.29-42.43,8.42-10.65,19.51-14.54,25.71-16.71,22.69-8,43.33-1.7,51.43,1.28-1.38-12.48-3.36-31.73-5.14-55.28-4.81-63.67-3.08-91.65-5.14-156.86-2.58-81.42-6.42-73.59-6.43-129.86,0-88.37,9.43-119.4,12.86-129.85C492.47,534.66,506.52,512.81,529.36,477.29Z"/></g><g id="ears"><path class="cls-3" d="M1508,1168.14c-.2-.1,1.91-5.66,9-18.43a373.47,373.47,0,0,1,36.86-54.42c9.6-11.88,22.47-26.58,39.43-37.29,5-3.18,12.2-7.13,20.57-5.57,1.1.2,9,1.79,13.71,8.57,3.88,5.54,3.72,11.74,2.14,24.43-2,16.08-3,24.12-5.57,33.43-6,21.55-11.09,33.05-15.43,45.43a259.45,259.45,0,0,0-12.85,57.42,550,550,0,0,0,4.71-62.14c1-55.31-7.57-47.88-8.14-75.43,0-1.87-.11-7.11-3-8.57-4.2-2.11-11.87,5-16.29,9.43C1546.69,1111.43,1508.68,1168.5,1508,1168.14Z"/><path class="cls-3" d="M542.54,1171.25c1.3-2.85-7.26-6.25-21.11-21.54-11.39-12.56-11.86-17.17-26.57-33.85-7.18-8.14-10.77-12.21-15-15-14.78-9.76-37.05-12.89-44.15-3.86-1,1.25-2.44,3.7-1.28,16.29,1.41,15.38,5.34,30.79,13.71,51.85,3.55,8.93,3.48,7.78,6.86,16.29a344.94,344.94,0,0,1,12.86,39,43.17,43.17,0,0,0,.85-20.14c-.87-4.22-1.6-4.12-2.57-9-2.05-10.42.74-13.53-2.14-18.86-2.24-4.14-4.28-2.92-8.57-8.14-1.64-2-3.29-4.56-6.86-15-2.77-8.12-4.56-14.75-6-20.58-4-16.08-3.44-19-1.71-21,2.27-2.62,6-2.88,7.71-3a17,17,0,0,1,14.57,7.29c2.29,3.33,2.41,6.4,2.15,20.14-.09,4.67-.23,10.62-.43,17.57a172.16,172.16,0,0,0,5.14-17.57c2.77-11.75,2.85-17.57,6.86-19.28s9,1.78,10.71,3c4.92,3.41,4.37,6.27,11.14,16.28,4.67,6.89,7,10.34,10.29,13.29s5.37,4,6,6.86c1,4.54-3.44,6.91-3,10.28C513,1170.54,540.29,1176.15,542.54,1171.25Z"/><path class="cls-3" d="M554,1256.86c-4-4.11-9.54-4.61-10.71-4.72-6.09-.54-10.61,2.19-13.29,3.86-9.81,6.12-13,16.5-13.29,17.57-2.63,9.11,1.12,12.61-.85,27a75.14,75.14,0,0,1-2.15,10.29A106.17,106.17,0,0,1,497,1296.71a101.48,101.48,0,0,1-19.29-28.28c-3.83-8.49-6.48-17.6-5.57-18,1.27-.56,10.7,15.13,16.72,26.14,0,0,6.17,11.29,16.28,18.86,1.22.91,3.46,2.46,4.72,1.71.68-.4,1.27-1.61.43-6.85a60.81,60.81,0,0,0-3-11.15c-2.51-7.58-.2-16.78,3.85-22.71,5.35-7.84,13.92-10.23,15.86-10.72,12.8-3.23,22.32,4.32,25.29.43,1.3-1.71-.17-3.67-2.58-13.28-2.08-8.32-3.83-15.28-2.57-15.86,1.84-.84,11,11.39,14.69,26.11a52.34,52.34,0,0,1,1.6,12.46c.06,10.19-2.93,19-4.29,18.86S560.41,1263.48,554,1256.86Z"/><path class="cls-4" d="M1515.5,1188.93a18,18,0,0,1,10.93.64c9.14,3.73,12.1,15.23,14.14,23.14a61.16,61.16,0,0,1,1.93,15.43c-3.42.41-8,1.07-13.5,2.15-12.78,2.53-17.71,5-19.29,3-2-2.58,4.84-8.55,7.72-18.65S1517.84,1195.07,1515.5,1188.93Z"/><path class="cls-4" d="M1520.64,1156.79c-.47.17-6.33,2.42-6.43,5.78,0,1.71,1.41,3.29,9,7.72,11.78,6.87,14.3,6.58,18.65,10.92,4.5,4.5,3,6,7.07,9,6.32,4.69,10.67,1.64,16.07,5.79,6.11,4.7,3.91,11.21,8.36,12.86,5.23,1.93,13.85-5,18-12.86,2.88-5.47,2.79-9.84,2.57-22.5-.55-32-.42-33.37-1.29-39.21-1.51-10.22-4-27.28-9-27.65-2.87-.21-6.78,5.14-6.43,9.65.38,4.74,5.34,6.54,4.5,9.64-.66,2.47-4.54,4.1-7.71,3.86-3.9-.3-4.71-3.29-9.64-5.79-4.56-2.31-11.3-3.51-12.86-1.29-2,2.79,4.25,10.91,9,15.43,3.49,3.32,4.25,2.86,7.71,6.43,3,3.09,6.45,6.66,7.72,12.22.52,2.3,1.71,7.53-1.29,11.57-3.5,4.71-10.31,4.55-11.57,4.5-7.54-.33-8.88-5.61-19.93-11.57C1537.82,1158.41,1528.87,1153.73,1520.64,1156.79Z"/><path class="cls-4" d="M1478.21,1309.79c-6.48,2.23-6.44,17.53-6.42,23.14,0,10.39,0,19.2,6.42,27,7.25,8.85,21.37,14.76,32.79,9.64.84-.38,10.6-4.92,12.21-14.14,1.42-8.07-4.26-14.71-10.92-22.5-4.43-5.18-9.6-8.81-19.93-16.07C1481.76,1309.41,1479.74,1309.26,1478.21,1309.79Z"/><path class="cls-4" d="M1635.71,1099.57c-6.31,1.68-2.71,18.25-9,43.72-2.2,8.93-3,8.41-11.57,35.35-4.72,14.9-3.14,10.86-5.89,19.21-2.1,6.37-2.86,8.23-2.46,8.44,1.22.64,11.79-15.45,19.92-32.15a228.09,228.09,0,0,0,10.93-27c7.31-21.64,12.24-36.85,5.15-44.35C1642.39,1102.37,1638.94,1098.72,1635.71,1099.57Z"/><path class="cls-3" d="M1508,1220c-3.12.17-4.77,11.19-6.86,25.71-2.66,18.53-1.33,20.08-.43,20.58,4.25,2.32,15.06-10,17.15-12.43l-10.72-1.72c.15-3.71.29-7.43.43-11.14a35.93,35.93,0,0,1,17.57-5.14,33.39,33.39,0,0,1,22.29,7.28c1.12.93,10.5,8.88,11.57,21.43,1.09,12.89-7.3,22.19-6,23.14,3,2.26,32.16-27.18,29.14-30.85-1.17-1.43-7,1.22-14.57,5.57a20.49,20.49,0,0,0,.43-12c-2.76-9.46-12.63-13.65-18.86-16.29a50.81,50.81,0,0,0-20.14-3.85,59.35,59.35,0,0,0-19.29,3c.43-.61,3.41-5,1.72-9.43C1511,1222.61,1509.57,1219.91,1508,1220Z"/><path class="cls-4" d="M1527.71,1261.57c-2.14,4.38-6.44,6.46-7.71,7.07-6.18,3-9.47,0-13.5,2.57-5.16,3.23-7.56,12.94-3.86,18,4.3,5.87,15.14,3.25,20.57,1.93,4.82-1.16,20.26-4.89,25.72-19.28,4.16-11-.26-20.84-1.29-23.15-1.32-3-4.86-10.88-10.28-10.92-3.56,0-6.85,3.33-8.36,6.42C1525.83,1250.7,1530.9,1255.08,1527.71,1261.57Z"/><path class="cls-4" d="M1514.86,1086.29c-8.65,10.5-9.69,10.66-11.36,14.35-1.37,3-1.84,7.31-2.79,15.86-1.64,14.94-.09,16.58.86,17.14,2.18,1.29,5.51-.61,7.07-1.5,6.26-3.56,8.84-9.85,10.29-13.07a99.08,99.08,0,0,1,17.57-26.36c7.72-8.16,18.61-15.22,20.57-16.5a46,46,0,0,0,11.79-9.85c3.43-4.17,4.28-6.92,6-9.86,7.9-13.5,21.9-9.87,33.21-24.11,1.53-1.92,8.52-10.72,5.79-15.43-3.35-5.78-20.22-3.44-31.63,2.29-1.85.93-15.18,7.82-22.37,21.82-1.77,3.43-2.13,5.29-4.82,9.64a52,52,0,0,1-13.18,15c-8.23,6.11-11.35,3.76-18.43,10.08C1521.24,1077.73,1522.19,1077.38,1514.86,1086.29Z"/><path class="cls-4" d="M1578.18,1274.43c-4.51,3.52-7,5.43-8.68,8.68-2.07,3.89-.88,5.55-1.93,12.53-1.13,7.56-4,15.59-5.78,15.43-2.32-.21-.46-14.38-5.79-16.39-3.9-1.47-9.35,4.43-10.61,5.78-8.43,9.12-7.11,21.67-6.75,25.08.53,5,1.15,10.93,4.82,12.53,4.78,2.09,11.77-4.39,16.4-8.68,2-1.89,7-6.69,13.18-17a107.92,107.92,0,0,0,12.21-32.47c.74-3.74,1.36-8.1-.32-9C1583.64,1270.2,1581.5,1271.83,1578.18,1274.43Z"/><path class="cls-4" d="M541.57,1281.5c-5.2.84-12.12,4.25-14.14,10.29-1.42,4.23.38,7.37,7.07,21.85,6.3,13.64,9.46,20.53,9.64,23.79.58,10.17-4.81,11.8-4.5,24.43.14,5.46.31,12.19,5.15,17.35,5,5.36,13.92,7.81,20.57,5.15,12.29-4.93,13.14-25.89,13.5-34.72.33-8.36-1.49-16.29-5.15-32.14-4.36-18.93-7.34-23.12-9.64-25.71C562.25,1289.73,553.26,1279.61,541.57,1281.5Z"/><path class="cls-4" d="M499.79,1183.14c-8.21-2.93-9.74-4.86-12.22-3.85-4.7,1.9-5,11.22-5.14,15.42-.28,8.71,1.64,24.57,9,26.36,2.08.51,3.43-.4,12.86-5.78,10-5.74,15.05-8.6,16.07-9,12.71-5,19.49-.29,25.07-6.43.53-.59,4-4.56,3.21-9.65-.6-3.76-3.47-7.61-7.07-8.35-3.76-.78-5.17,2.47-11.57,4.5-5.29,1.67-9.79,1.18-14.79.64A65.21,65.21,0,0,1,499.79,1183.14Z"/><path class="cls-4" d="M460.57,1221.07c-1.17.32-3.47-6.26-10.48-19.58-2.18-4.14-2.22-4-6.23-11.28-16.19-29.4-15.67-31.9-14.79-32.78,2.19-2.18,9.88,2.33,10.29,2.57,13.07,7.79,16.44,24.79,19.93,43.71C459.46,1204.68,462.35,1220.59,460.57,1221.07Z"/></g><g id="nose"><path class="cls-5" d="M1098.29,1350.29c.92-.64-.65-5.15-3.22-8.58a22.72,22.72,0,0,0-6.43-5.57A34.1,34.1,0,0,0,1076,1331a30.51,30.51,0,0,0-6-.43c-3.84.12-6.57,1-10.29,2.14-9,2.87-13.56,4.31-13.92,4.5-7,3.62-12,9.19-11.58,9.86.17.24,1-.14,6-2.57,10.79-5.26,10.94-5.51,12.86-6.21a38.32,38.32,0,0,1,13.72-2.15,33.6,33.6,0,0,1,13.92,2.36,46.91,46.91,0,0,1,9.65,6C1095.6,1348.37,1097.53,1350.81,1098.29,1350.29Z"/><path class="cls-6" d="M914.43,1350.93c-.89-1.18,2.69-6,7.07-9a26.06,26.06,0,0,1,6.86-3.22,58.72,58.72,0,0,1,16.71-3,61.51,61.51,0,0,1,16.72,1.93c8.54,2.19,11.38,4.88,12.85,7.07.29.44,2.08,3.15,1.29,4.08s-4.19-.69-7.07-1.93a79,79,0,0,0-17.57-4.93,41.93,41.93,0,0,0-18.65,1.28c-5,1.59-7.45,2.38-9.43,4.08a14.06,14.06,0,0,1-6.21,3.64C916,1351.17,914.82,1351.45,914.43,1350.93Z"/><path class="cls-3" d="M914,1360.57a6,6,0,0,1-.86,7.29c-1.3,1.15-3.15,1.23-8.57,0-8.77-2-13.16-3-18-6.43a29.55,29.55,0,0,1-9-9.43c-2.87-4.94-3.28-9.34-3.86-16.29a95.17,95.17,0,0,1,.86-21c1.4-9.93,2.1-14.89,4.72-19.28,1.88-3.17,2.53-2.8,17.14-15,9.55-8,12.47-10.8,15.43-14.14.72-.82,2.92-3.56,7.28-9,6.65-8.29,10-12.45,10.29-13.29,3.27-8.79-1.89-15.1,3-20.57.57-.64,2.13-2.38,3.86-2.14.77.1,3.14.82,5.57,11.57a97.06,97.06,0,0,1,2.14,18c.56,11.39.82,17.13,0,19.71-1.58,5-4.91,8.62-11.57,15.86-6.13,6.66-9.71,10.55-15.86,14.14-7.09,4.14-10,3.44-14.57,8.14a37.68,37.68,0,0,0-6.86,10.72,38.9,38.9,0,0,0-3.85,11.57c-.57,3.73-1.18,7.72.42,12.43.15.43,3.11,8.75,10.29,12,3.07,1.39,6.43,2.57,6.43,2.57C912.05,1359.27,913.15,1359.37,914,1360.57Z"/><path class="cls-3" d="M1097.43,1361a11.28,11.28,0,0,0-.43,3.43c.77,1.49,2.3,3.86,4.71,4.28,1.92.34,3.47-.71,5.15-1.71,5.66-3.36,5.44-1.71,11.57-5.14a47.62,47.62,0,0,0,11.14-8.15,38.28,38.28,0,0,0,10.72-20.57c1.43-8.57-.76-15.3-2.58-21a60.34,60.34,0,0,0-6.42-13.71,72.64,72.64,0,0,0-10.72-13.29c-4.32-4.26-7.41-7.3-12.43-9.85-7.79-4-9.34-1.19-17.14-5.58-3.28-1.84-5.8-3.9-10.71-5.14a29,29,0,0,0-6.43-.86,46.56,46.56,0,0,0,2.14,10.72c1.59,4.88,2.73,8.35,5.57,11.14,4.77,4.68,8.55,1.76,17.14,6.43,4.4,2.38,3.15,3,11.15,8.57,7.53,5.24,8.71,4.75,11.14,7.72,4.29,5.24,4.57,11.63,4.71,15,.13,2.82.43,9.79-3.85,16.28a29.59,29.59,0,0,1-8.57,8.14c-3.84,2.6-5,2.32-9.43,5.58C1099.77,1356.32,1098.15,1358.53,1097.43,1361Z"/><path class="cls-4" d="M983.86,1282.14l-12.22,9-7.07,3.87-5.14,8.35h16.7l17.37-5.15,17.36,5.15,9,5.14,14.32,2.57h10.75s-.64-13.5-2.57-14.46-19.29-14.47-19.29-14.47l-20.89-4.5Z"/><path class="cls-4" d="M930.5,1347.07v9s12.07,3.86,14.71,4.5,25.15,8.21,25.15,8.21l24.43-4.35,12.21,7.71,12.21-3.36,15-14,18.46-7.72h13.73l13.27,4.15,9.95,20.92v17.36l-4.8,32.79,4.8,21.21V1457l-23.22.09-21.44,5-13.42,3.52-12.94,3.69h-8.52l-10-4.26-21.29-8-25.07-23.1-19.93-25.72-9-27.64-10.42-4.5h13l10.28-7.25-10.28-8.82-2.58-8.71Z"/><path class="cls-4" d="M979.36,1096.36s-13.5,20.57-15.43,21.21-1.93,13.5-4.5,16.07,10,28.29,10,28.29l30.61,13.5,24.36-16.72-5.79-19.92,5.79-14.79,2.69-20.57-10.41-18Z"/></g><g id="eyes"><path class="cls-7" d="M873.48,1107c.17,37.88-50.66,71.16-80.62,63.27-27.29-7.2-67.65-56.59-80.29-59.47a21.74,21.74,0,0,1-7.07-2.89,22,22,0,0,1-8-9c-3.71-10.3,41.21-59.27,95.4-55.18C827.43,1046.37,873.31,1071.14,873.48,1107Z"/><ellipse class="cls-7" cx="1187.92" cy="1093.57" rx="80.61" ry="63.27"/><circle class="cls-8" cx="1188.64" cy="1091.65" r="47.89"/><circle class="cls-8" cx="795.39" cy="1106.64" r="47.89"/><circle cx="795.39" cy="1106.64" r="22.18"/><circle cx="1188.64" cy="1091.65" r="22.18"/><path class="cls-9" d="M866.86,1123.68c-6.46-7.07-2.12-14.89-6.11-25.39-3.23-8.5-9.74-13-18.32-19-12.39-8.58-24.1-11.16-33.75-13.18-18.42-3.85-33.09-2.49-45-1.28-14.31,1.44-22,2.22-31.18,6.43-17.26,7.9-26.88,22-31.5,30.21,3.26,1.62,8,4,13.82,6.75,26,12.43,38.93,18.64,50.47,21.54,14.88,3.73,27.55,6.91,41.78,3.21,1-.25,21-5.48,33.75-8.36,1-.22,2.89-.64,5.47-1,4.84-.6,11.33-1.43,17.14.53,7.61,2.58,15.4,10.38,15.32,18.75,0,4.74-2.6,8.41-4.37,10.59-16.74,20.6-48.67,26.38-48.67,26.38-93.84,17-140.77,25.46-158.14,11.25-33.46-27.37-34.08-80.63-27.32-111.86,2.24-10.34,10.36-47.88,43.07-71.68,64.81-47.14,157,9.93,163.61,14.15,12.22,7.8,71.21,47.59,66.53,95.14-2.3,23.41-19.53,43.7-24.75,42.11-4.57-1.4.28-19.61-11.25-29.09C872.91,1126.2,870.55,1127.71,866.86,1123.68Z"/><path class="cls-9" d="M1108.57,1118.21a80.77,80.77,0,0,1,3.54-17,74.87,74.87,0,0,1,15.75-26c19.23-20.33,46.17-22.32,57.21-23.14a104,104,0,0,1,37,3.86c8.85,2.63,31,10.57,47.89,31.18,1.39,1.7,2.49,3.17,3.21,4.17-1.4,1-3.5,2.48-6.1,4.18-9.45,6.19-17.12,10-28,15.11-16.56,7.87-24.84,11.8-27.32,12.54-10.27,3-18.28,3.52-29.25,4.17-13.77.83-21,1.26-30.21-1.28-3.21-.89-6.68-2.14-13.18-3.54-3.18-.68-7.27-1.2-15.43-2.25-4.08-.52-7.07-.85-10.93,0a21.85,21.85,0,0,0-4.82,1.61c-6.34,3.11-10.35,10.72-10.93,17.68-.54,6.55,2,11.48,4.39,15.8,4,7.41,9.14,12.14,17.2,18.54a299.7,299.7,0,0,0,28.23,20,363.93,363.93,0,0,0,32.47,17.68c28.85,12.76,89.45,7.35,133.71-30.22,13.5-11.45,60.55-55.66,52.07-115.71-8.08-57.25-60.66-86.71-74.57-94.5-61.37-34.38-127-18.21-182.57-4.5-44.06,10.86-74.06,18.25-102.22,45.64-38.51,37.47-54.32,93.6-45,141.43,2,10.25,11,56.36,39.86,65.57,16.48,5.27,23.68-6.54,57.22-10.28,41.56-4.65,60.52,10.13,68.14,0C1136.9,1194.27,1105.6,1153.08,1108.57,1118.21Z"/><path class="cls-10" d="M862.68,1106l1.05,12.19a54.37,54.37,0,0,0-9.92-24.21,58.88,58.88,0,0,0-7.52-8.12c-9.71-8.6-27.84-17.68-50.15-20.68-13.3-1.79-42.4-5.7-66,10.39-11.27,7.69-14.17,15.09-27.85,19.29-14.93,4.58-30.43,1.59-30.43,1.28,0-.14,3.54,0,10.18-.59a132.89,132.89,0,0,0,19.28-3.21,62.68,62.68,0,0,1-19.44,1,62,62,0,0,1-9.49-1.76c3.38.1,6.92.11,10.61,0a171.91,171.91,0,0,0,18.64-1.61,111.28,111.28,0,0,1-15.43-.16c-4.17-.34-9-1-9-1.29s3.86-.16,10.13-.32c6-.15,16.22-.61,16.23-1.12,0-.3-3.3-.75-18.16-1.45,10.87-.39,19.93-.84,19.93-1.29s-7.43-.58-7.44-1.27c0-.34,1.82-.54,4.71-1.14,5.23-1.09,9.21-2.51,9.16-2.73s-5,1.52-11.41.8a27.15,27.15,0,0,1-5.31-1.12,64.25,64.25,0,0,0,11.41-.64c4.71-.7,10-2,10-2.57,0-.29-1.58-.49-8.52,0-3.3-.59-4.58-1-4.55-1.25.07-.94,16.92-.33,16.93-.52s-.92-.06-2.4-.21a46,46,0,0,1-6.93-1.24c-1.26-.33-4.72-1.3-4.66-1.61s4.78.68,11.58,1c3,.12,5.45.07,7.07,0a35.23,35.23,0,0,1-8.2-1.77c-1.06-.37-2.8-1-2.73-1.29s3.53.12,8.84.33a56.8,56.8,0,0,0,9.64-.16,34.08,34.08,0,0,0,10.29-3.38c5.17-2.28,10-3,19.6-4.5,14.92-2.3,29.29.51,41.47,2.89,0,0,24.78,4.85,37.6,13.18a68.48,68.48,0,0,1,10,8,45,45,0,0,1,5.2,6A37,37,0,0,1,862.68,1106Z"/><path class="cls-10" d="M664.68,1102.79c.18-.89,6.45.91,16.39.32,12.55-.75,22-4.76,22.82-2.9.49,1.1-2.77,2.48-3,6-.16,3.07,2.18,5.43,2.65,5.89,2.91,2.81,7,2.88,8.35,2.94,8.54.4,11.25,6.59,26.68,11.89a247.09,247.09,0,0,0,27.32,7.72c10.34,2.26,17.51,3.82,26.68,4.18,19.72.76,33.62-4.68,33.75-4.18s-15.07,7.8-35.36,8.35c-14.73.41-26.74-2.84-37.61-5.78s-18.94-5.13-29.57-9.64c-11.59-4.93-15.38-8-22.21-6.94-8,1.28-9.39,6.48-18.29,7.9-9.74,1.55-18.15-3.52-18-4.18s9.11,3.3,18.64.32c7.14-2.23,12.09-7.56,15.43-12.53-1.16,1.26-9.9,10.42-22.69,9.28a26.44,26.44,0,0,1-13.63-5.43,30.93,30.93,0,0,0,13.82,2.25c12.72-.93,21.09-10,20.9-10.28s-8.39,7.94-19.93,7.71c-8.85-.17-15.64-5.25-15.43-5.78s8.12,4.2,17.72,2.85c6.88-1,12.24-4.75,16-8.32a37.86,37.86,0,0,1-17,2.9C671.43,1106.75,664.49,1103.72,664.68,1102.79Z"/><path class="cls-10" d="M1110.53,1092.11c-2.34,10.72-1.19,19.81-.75,19.82s-.39-11.1,4.77-23.16a45.4,45.4,0,0,1,4.86-8.67,59.82,59.82,0,0,1,7.52-8.13c9.7-8.59,27.83-17.68,50.14-20.68,13.3-1.79,42.4-5.7,66,10.4,11.27,7.68,14.17,15.08,27.86,19.28,14.93,4.59,30.43,1.59,30.42,1.29s-3.54,0-10.17-.59a132.59,132.59,0,0,1-19.29-3.22,62.3,62.3,0,0,0,28.93-.8c-3.37.11-6.92.12-10.61,0a169.64,169.64,0,0,1-18.64-1.61,109.71,109.71,0,0,0,15.43-.16c4.18-.33,9-1,9-1.28s-3.86-.17-10.13-.32c-6-.15-16.22-.61-16.23-1.13,0-.29,3.3-.75,18.16-1.45-10.87-.38-19.93-.83-19.93-1.28s7.43-.58,7.44-1.27c0-.34-1.82-.54-4.71-1.14-5.22-1.09-9.21-2.52-9.16-2.73s5,1.52,11.41.8a27.8,27.8,0,0,0,5.31-1.13,62.39,62.39,0,0,1-11.41-.64c-4.71-.69-10-2-10-2.57,0-.29,1.58-.48,8.52,0,3.3-.58,4.58-1,4.56-1.24-.08-1-16.93-.34-16.93-.53,0,0,.91-.06,2.4-.21a45.72,45.72,0,0,0,6.92-1.23c1.26-.34,4.72-1.3,4.66-1.61s-4.78.67-11.57,1c-3,.13-5.45.07-7.07,0a34.65,34.65,0,0,0,8.19-1.77c1.06-.36,2.8-1,2.73-1.28s-3.52.11-8.84.32a54.82,54.82,0,0,1-9.64-.16,33.64,33.64,0,0,1-10.28-3.38c-5.18-2.27-10-3-19.61-4.5-14.92-2.29-29.28.52-41.47,2.9,0,0-24.78,4.85-37.6,13.18a68.81,68.81,0,0,0-10,8,45.15,45.15,0,0,0-5.2,6C1115.54,1078.72,1112.44,1083.41,1110.53,1092.11Z"/><path class="cls-10" d="M1306.84,1093.36c-.17-.87-7.12,1.86-16.39.32-12.37-2-20.39-10.27-22-8.46-1.33,1.46,4.11,6.51,2.19,11.52-.75,2-2.27,3-4.52,4.44C1255.48,1108,1251,1110,1251,1110c-8.27,3.66-12.4,5.49-18.1,7.51a225.67,225.67,0,0,1-27.32,7.72c-10.34,2.26-17.51,3.82-26.68,4.18-19.72.76-33.62-4.68-33.75-4.18s15.07,7.8,35.36,8.36c14.73.4,26.74-2.85,37.61-5.79s18.95-5.13,29.57-9.64c11.59-4.93,15.38-8,22.21-6.94,8,1.28,9.39,6.48,18.29,7.9,9.74,1.56,18.16-3.52,18-4.18s-9.11,3.3-18.64.32c-7.14-2.23-12.09-7.56-15.43-12.53,1.16,1.26,9.91,10.42,22.69,9.28a26.54,26.54,0,0,0,13.63-5.42,31.21,31.21,0,0,1-13.82,2.25c-12.72-.94-21.09-10-20.89-10.29s8.39,7.94,19.92,7.71c8.85-.17,15.64-5.25,15.43-5.78s-8.12,4.2-17.72,2.85c-6.88-1-12.24-4.75-16-8.32a37.86,37.86,0,0,0,17,2.9C1300.09,1097.32,1307,1094.29,1306.84,1093.36Z"/></g><g id="Highlights"><path class="cls-4" d="M940.17,753.71c5.78-12.22,16.61-35.13,39.83-41.14,25-6.46,47.49,11,56.57,18,17.49,13.54,20.43,25.14,33.43,43.72,37.43,53.48,86.53,62.29,82.29,79.71-2,8-15,11.33-41.15,18-26.51,6.77-51.13,13-79.71,5.14-3.57-1-18.71-9.24-48.86-25.71-39.15-21.39-42.94-23.62-46.9-30.22C920.34,795.66,936.59,761.28,940.17,753.71Z"/><path class="cls-4" d="M1000.57,1131.71c-11.54,7.61-29.38,7.63-39.94-.45-12.83-9.83-5.75-24.63-14.06-56.12-10-38-26.54-39.93-28.28-69.43-.41-6.93-1.9-32.16,15.42-51.42,17.15-19.06,49.42-28.62,72-15.43,21.23,12.39,24.65,39.48,26.39,53.29,2.39,19-2.42,23.71-11,67.56C1011.51,1109.17,1013.77,1123,1000.57,1131.71Z"/><path class="cls-4" d="M1188.29,1332.29a139,139,0,0,0,51.42,0c20.16-3.87,37.41-7.18,48.86-20.58,14.06-16.44,2.74-28.62,12.86-61.71,11.3-36.93,32.14-43.83,28.28-66.86-2.37-14.17-13.17-29-25.71-30.85-14-2.12-19.61,13.45-41.14,25.71-31.14,17.72-65.78,11.56-87.43,7.71-4.54-.8-38.15-7.11-59.73-27.19-11.89-11.07-12.32-19-12.27-21.66.1-5.88,3-7.21,4.5-15.11,1.78-9.48.61-23.56-5.79-26-5.67-2.19-14.91,5-19.28,12.86-7.11,12.85-1.46,27.87,2.57,38.57,3.07,8.16,10.57,28.11,30.21,41.79,15.26,10.62,25.88,9.14,33.43,21.86,1.56,2.62,7.24,12.19,3.86,20.57-2.64,6.54-8.49,6.6-25.72,19.28-9.35,6.89-11.66,9.84-12.21,13.5-.36,2.37,0,4.81,5.14,14.79,4.21,8.23,6.31,12.35,9.71,17.29,4,5.75,10.79,15.67,21.15,23.21C1162.63,1327.89,1173.83,1329.81,1188.29,1332.29Z"/><path class="cls-4" d="M888.71,1133.64c2.36,8.51-3.1,16.41-8.35,23.79-6.33,8.88-12.73,14.12-19.93,19.93-30.87,24.89-33.44,25.73-34.07,30.21-1.76,12.43,16.67,15.27,27,39.22,1.17,2.71,10.25,24.59,2.57,46.92-3.82,11.09-8.21,11.94-21.86,31.5-15.24,21.84-12.28,24.38-22.5,37.93-8.5,11.28-28.49,37.8-55.93,37.29-22-.41-37-17.94-39.85-21.22-24.79-28.81-13.67-70.17-10.93-80.35a108.94,108.94,0,0,1,19.93-40.5c15-18.84,30.92-24.79,28.92-32.15-1.24-4.6-8.28-5.27-31.5-10.92-21-5.1-41.39-10.15-41.14-13.5.3-3.9,27.85,3,47.57-12.86,14-11.28,9.88-22.64,23.15-30.86,9.16-5.67,15.79-3.13,48.21-.64,51.63,4,59.11-.64,63-4.5,11.08-11,6.8-29.7,14.14-30.86C881.63,1121.36,887.08,1127.74,888.71,1133.64Z"/><path class="cls-4" d="M1208.86,1535.75c4.33,1.52,3.15,10.21,5.78,23.14,3.65,17.94,11.9,30.62,18.32,40.5,12.82,19.7,18.93,17.51,23.15,29.9,4.45,13.09.76,24.77-4.82,42.42-6.89,21.76-17,36.94-28,53-9.49,14-14.8,21.8-24.11,30.86-16.9,16.46-33.71,24.1-51.1,31.82a282.87,282.87,0,0,1-72.32,21.21c-39.9,5.89-70.49,1.37-99.33-2.89-31-4.59-46.56-6.88-59.78-14.46-21.49-12.34-33.93-35.55-58.82-82,0,0-17.36-32.36-35.68-86.78a118.08,118.08,0,0,1-5.79-46.29c.83-10.56,2.15-27.31,12.54-31.82,8.29-3.6,17.81,2.55,18.32,2.89,10.3,6.86,11.28,19.68,14.46,36.64,0,0,4.43,23.57,15.43,55,7.39,21.06,13.35,38.07,28,53,11.83,12.12,30.07,19,66.53,32.79,23.45,8.86,35.17,13.29,50.15,15.43,30.56,4.36,53.75-1.31,59.78-2.89,19.51-5.14,45-11.85,54-31.83,6.21-13.85-2.38-18.88,1.07-39.49,4.54-27.1,20.55-25.28,33.65-57.9,9.83-24.49,6.11-38.74,22.41-60.06C1195.5,1544.35,1203.62,1533.91,1208.86,1535.75Z"/><path class="cls-4" d="M1928.13,654.69"/></g><g id="mouth"><path class="cls-6" d="M869.43,1510.36c-4.46-1-9.46-2.7-9.64-5.15-.13-1.62,1.62-6.59,42.42-16.07a602,602,0,0,1,101.58-14.78,698.23,698.23,0,0,1,101.57,2.57,717.22,717.22,0,0,1,88.07,14.14l9.8.48q-.07,8.37-.16,16.72a317.32,317.32,0,0,1-42.43,75c-18.87,24.76-36.87,48.39-68.78,64.61-9.72,4.94-64.16,32.61-115.56,10.45-34.16-14.74-51.55-44.85-81.16-96.11A454.89,454.89,0,0,1,869.43,1510.36Z"/><path class="cls-11" d="M991.57,1643.59a39.08,39.08,0,0,0,.16,4.18l58,1.93q1.2-6.67,2.41-13.34l-31.66-3.54-24.59-.32c-1.23,1.55-2.46,3.11-3.7,4.66A39.12,39.12,0,0,0,991.57,1643.59Z"/><path class="cls-12" d="M1223.3,1492.47c-.07.48-4.59-.32-12.85.33-6.9.54-9.07,1.52-14.14,2-6.57.68-10.5-.17-19.29-1.41-17-2.39-15.67-1.08-27-2.89-18.59-3-21.88-6.48-40.5-9.65a186.07,186.07,0,0,0-21.55-2.38l-26,1.74a211.49,211.49,0,0,1-39.22,5.46c-7.74.33-13.49.09-15.43,0a168.41,168.41,0,0,1-24.1-2.89c-15.32-2.68-30.14.46-59.79,6.75-8.12,1.73-26.35,5.86-40.18,7.72a83.79,83.79,0,0,1-23.14,0c-1.63-.24-3-.48-3.86-.65a173.77,173.77,0,0,0,23.15-3.53c3.94-.88,14.87-3.46,33.42-10.93,22.89-9.22,19.43-10.6,32.15-14.47,2.29-.69,20.94-6.21,41.14-4.5,9.57.82,14.35,1.22,19,3.54,2.82,1.42,5.47,3.29,9.65,3.54a18.35,18.35,0,0,0,10-2.58c2.11-1.13,13.3-4,35.68-9.64,14.57-3.69,20,1.86,72.64,14.47,23.6,5.64,47.9,10.6,47.9,10.6C1201,1487.27,1223.47,1491.41,1223.3,1492.47Z"/><path class="cls-12" d="M856.55,1502.76c-4.39,4.38-4,11.38-3.85,15.43a34,34,0,0,0,3.53,13.18c7.39,15.76,13.49,19.59,20.57,32.78,3.16,5.87,5,11.2,8.68,21.86a279.89,279.89,0,0,1,8.36,29.25c4.76,19.9,23.4,55.48,57.54,76.18,25.38,15.39,49.92,16.84,64,17.68a166.83,166.83,0,0,0,69.11-11.25c11.28-4.38,36.81-14.61,59.78-39.54,6.81-7.38,24.65-27.15,33.11-56.57,4.13-14.37,4-23.91,11.89-44.68,5.27-13.83,7.91-20.74,10.93-26.36,7-13,12.49-18.19,10.29-23.46-2.38-5.68-11.69-6.7-18-7.39-11.5-1.26-25.48,1.66-27,7.71a18.56,18.56,0,0,0,0,3.54,63.72,63.72,0,0,0,1.28,10.28s.42,2.24,1.29,12.54c.31,3.74-1,21.52-24.75,53.68-11.67,15.79-17.66,23.9-29.25,32.46-13.83,10.22-26.33,14.21-39.22,18.32-15.34,4.9-34.28,10.95-59.14,8.68a115.23,115.23,0,0,1-48.21-14.78c-16.35-9.49-28.58-27.22-53-62.68-8.28-12-22.35-33.51-20.57-46.93a18,18,0,0,0-1-9.32c-3-7.51-11.07-10.63-13.5-11.57C877.43,1501,863.64,1495.69,856.55,1502.76Z"/><path class="cls-12" d="M904.45,1513.37c-1.25,3.06-.09,5.51.64,10.28,1.36,9-.58,14.29-1,19.29-1.21,15.53,12.35,30.46,17.67,36.32,12.74,14,27.71,18.89,37.61,22.18,14.49,4.82,14.18,1.09,31.5,6.11,0,0,12.86,3.72,19.61,1l5.46-2.25h6.11c6.12,0,13.62,1.6,18.32,2.57,9.81,2,14.71,3,18,3.54a92,92,0,0,0,26.36,0c5.62-.75,20.43-2.88,35.36-12.22,23.88-14.94,32.55-38.64,35.67-47.57a102,102,0,0,0,4.5-48.21,18.85,18.85,0,0,0-3.85-3.54,21.5,21.5,0,0,0-10.61-3.53c-10.81-1,4.9-1.21-23.46-3.86-14.62-1.37-21.92-2-30.86-2.25-16.69-.38-26.47-.6-39.22,2.25a110.05,110.05,0,0,0-21.21,7.07c-6.62.48-16.93,1-29.57,1-18.19-.12-22.67-1.48-42.75-1.6,0,0-16.06-.1-40.82,5.46C914,1506.23,906.63,1508,904.45,1513.37Z"/><path class="cls-12" d="M1020.63,1634.61"/><path class="cls-13" d="M947.54,1655.8c-.28,1.53,1,2.89,4.34,6a86.46,86.46,0,0,0,9.8,8c4.16,2.84,5.34,3.09,6.43,3,2.48-.1,3.28-1.7,5.46-1.61,2.56.11,3.57,2.41,6.11,4.66,4.82,4.27,11.61,5.18,16.23,4.34,3.51-.64,8-2.69,8-5a3.42,3.42,0,0,0-1.61-2.41c-4.9-3.93-9.62-3.13-17.36-5.63-5.56-1.79-6.48-3.28-10.44-3.21s-4,1.65-7.4,1.61c-5.64-.08-12.84-4.5-15.59-9.32-.39-.69-1.32-2.5-2.41-2.41C948.38,1653.93,947.69,1654.92,947.54,1655.8Z"/><path class="cls-13" d="M1006.68,1677.5c2-1.44,4.57-3.28,7.71-2.73,2.39.41,5.41,2.26,5.47,4.66,0,2-2.11,3.55-2.57,3.86-4.77,3.12-13.21-.29-13.34-2.9C1003.9,1679.49,1004.85,1678.81,1006.68,1677.5Z"/><path class="cls-13" d="M1028.21,1675.73c0,1.73,4.52,2.92,11.09,4.66,7.36,1.95,12,3.17,14.79.65,2.43-2.17,3.32-6.9,1.45-9.49C1050.8,1665,1028.15,1671.82,1028.21,1675.73Z"/><path class="cls-13" d="M1063.14,1669.14c-.89,1.46-1.14,3.85,0,5.15,3.52,4,18.72-4.09,23.15-6.43,2.38-1.27,5.19-3.11,10.8-6.79,2.52-1.64,3-2,2.91-2.21-.39-1-11.47,6.39-26.57,7.28C1069.62,1666.37,1064.92,1666.22,1063.14,1669.14Z"/><path class="cls-13" d="M1108.14,1559h0c-12.07,8-21.84,9.77-28.71,9.86-4.83.06-9.71-.71-13.29,2.57-4.05,3.71-5.18,11.49-2.14,14.57,4.08,4.12,16.73.88,24.86-5.14,4.4-3.26,7.24-7.16,11.14-6.43,3.41.63,3.78,4.07,6.86,4.28,4.18.3,8.87-5.71,9.85-11.57a15.83,15.83,0,0,0-.85-8.14"/><path class="cls-13" d="M986.43,1573.14c-1,3.39,4.83,7.61,5.57,8.15,3.65,2.64,11.17,5.78,16.29,1.71,3.27-2.61,5.23-7.9,3.42-11.14C1008,1565.1,988.06,1567.55,986.43,1573.14Z"/><path class="cls-13" d="M987.71,1548.29c-1.2,3.29.1,7.08,2.15,9.42,4.33,5,13.94,5.61,18,0a11,11,0,0,0-1.29-13.71C1001.13,1538.8,990,1541.93,987.71,1548.29Z"/><path class="cls-13" d="M1040.86,1557.71c-7.07-.91-12.82,12.72-14.15,15.86-1.06,2.53-3.19,7.57-1.28,9.43s5.87-1.81,12-.43c4.82,1.09,6.14,4.24,8.57,3.43,3.46-1.14,3.81-8.5,3.86-9.43C1050.21,1569.16,1046.82,1558.48,1040.86,1557.71Z"/></g><g id="eyebrows"><path class="cls-14" d="M1099.57,950.43c-1.92,1.85-7.23,7-6.43,12.86.86,6.26,8.2,9.93,11.57,11.57,13.61,6.59,27,4.28,41.15,2.57,33.93-4.1,28,.62,60.43-3.86,29-4,28.62-7.07,46.28-7.71,9.55-.35,30.21-.92,54,7.71,27.89,10.11,45.91,27.71,55.29,38.57A131.06,131.06,0,0,0,1331,960.71c-6.69-6.8-15.55-15.64-29.57-21.85s-26-6.69-57.86-5.15c-45.71,2.22-42.35,4.34-69.43,5.15C1140,939.88,1113.34,937.15,1099.57,950.43Z"/><path class="cls-14" d="M850.14,982.57c-.36,4.8-13.15,7.5-20.57,9a161.41,161.41,0,0,1-49.36,2.14,648.1,648.1,0,0,0-81.78-2.14c-32.7,1.19-43.63,4.93-52.72,10.29-5.18,3-18.71,11.29-27,28.28a64.41,64.41,0,0,0-6.42,27,68,68,0,0,1,18-74.57c16.5-15.44,35.66-18.51,56.57-21.86,18.68-3,32.9-2.25,51.43-1.28,33.12,1.72,29.51,6.16,56.57,6.43,9.09.09,21.69-.3,37.28,5.14C836.34,972.47,850.53,977.41,850.14,982.57Z"/><path class="cls-14" d="M1473.07,1191.5c1.75.09,5.34-16.65,12.54-50.14,0,0,6.93-32.28,8.68-55,.37-4.91.6-9.8.6-9.8.26-5.51.35-10.34.36-14.3a34.11,34.11,0,0,1,5.46,11.78c2,8.16.14,14.45.86,14.57s3.52-7.09,3.64-15.64a42.09,42.09,0,0,0-1.07-10.07,15.42,15.42,0,0,1,4.29,7.5c.65,3,0,5.06.43,5.14.73.16,4-7.17,5.14-16.28,1-8-.21-12.86,1.29-13.29,1.28-.37,3.71,2.77,4.71,6,1.57,5.07-.75,9.12,0,9.43.9.37,5.52-5,6-12a18.9,18.9,0,0,0-2.14-9.86,13.86,13.86,0,0,1,6,3.43c2.53,2.54,3,5.21,3.43,5.14.67-.1.63-6.08-1.72-27.85a16.58,16.58,0,0,1,5.57,8.57c.77,3.22.06,5.48.43,5.57,1,.23,6.36-14,9.43-30.86a163.67,163.67,0,0,0,2.57-32.14,639.56,639.56,0,0,0-5.14-70.29c-3.07-24.33-9.52-70.42-12.65-88.77-.38-2.24-1.61-9.33-2.46-18.91-.46-5.23-.66-9.51-.75-12.21,0-2.87-.09-6.26-.32-10.07-.11-1.84-.36-5.52-.88-10.11-1.18-10.26-2.4-14.11-3.62-21.71-1-6.2-.61-7.57-1.29-19-.75-12.82-1.37-13.52-3.94-39.87-1.32-13.59-2-20.39-2.27-26.13-.8-16.15.09-23.81.11-33.1,0-16.31-5.71-35.81-17-74.15-5.3-17.92-7.94-26.88-10.18-32.89-8.84-23.82-20.85-45.45-37.93-69.11C1351,306.21,1288.57,260,1288.57,260,1248,219.44,1182,201,1179,200.21c-37-10-53.33-7-84.16-23.38-11.94-6.35-26.68-15.94-26.09-26.76.52-9.47,12.59-16.07,11.58-17.36s-11.43,3.46-20.58,12.86c-9.94,10.23-9.65,17.26-14.14,18-12.42,2.05-29.19-49.37-32.78-48.21-1.28.41-.93,7.4,5.78,35.35-21.67-24.17-35.56-38.82-36.64-37.92-1.69,1.4,28.86,39.73,26.41,41.83-1.93,1.65-20.31-22.49-53.41-45.05C924.41,88.77,898.49,81,898.36,81.29s25.41,7.79,47.57,30.21c18.06,18.27,25.22,37.71,24.21,38.36-1.27.82-14.29-29.25-46.07-47.36C919.75,100,908.36,94,890,90.29,828.17,77.89,769.17,109,769.14,108.93s21.07-10.14,52.72-13.5a187.85,187.85,0,0,1,45.64.64c10.94,1.52,22.88,3.27,37.29,9.64,6.79,3,17.49,7.86,28.28,18,14.82,13.93,22.27,30.76,21.22,31.5-.67.47-4.64-5.34-14.15-14.78a227.6,227.6,0,0,0-21.51-18.6c-20.43-15.09-48-16.83-69.77-18-29.15-1.54-54.69,2.12-54.65,3.8,0,1.51,20.56.28,53.75,4.9,33.83,4.71,50.75,7.07,62.26,16.92,3.85,3.3,21.14,19.18,32.29,29.51l.71.66q-7.14.78-14.56,1.82C917.56,163,907,164.89,897,167c0,0-10.6,2.31-23.48,6.1C684,228.83,571.14,370.57,571.14,370.57,487.09,476.13,468,582.67,451.89,671.75c-36.17,199.72,14.6,350.76,28.22,365.57.88,1,10.22,10.73,7.46,16.29-2.15,4.33-10.53,3.82-10.61,5.78-.1,2.92,18.38,4.93,18.33,7.72-.05,2.62-16.48,4-16.4,5.78.1,2,20.53,1.39,21.22,5.79.1.64-.24,1.22-.91,2-5.06,6.18-14.38,8.06-14.52,7.61-.28-.91,39.15-3.83,45.32-23.14,4.12-12.9-10.18-21.92-20.25-48.22-2.08-5.42-7.13-19.82-7.71-55.92-1.14-70.19,15.78-151.24,22.17-181.29,18.15-85.28,15.16-112.68,25.08-113.79,21.32-2.38,47.66,118.29,57.85,116,10.57-2.33-9.43-133.87-5.42-134.51,3.74-.59,20.27,114.66,33.71,113.94S651,645.26,657.35,645.37c7,.11,11.62,141.84,14.08,141.77,1.94,0-4.73-88,20.57-192.85,5.74-23.8,14.33-53.42,17.52-52.82,4.06.76-4.94,49.72-7.23,106.82-3.87,96,12.53,182.81,20.57,182.57,11.63-.36,9.31-183.09,24.54-183.8,14.5-.67,31.78,164.16,42.31,163.23,7.2-.64-1.72-77.53,20.58-180C821.66,578,843.06,510.31,854,512c24.56,3.8-19.81,354.93,10.29,360,19.53,3.29,56.71-141.52,71.39-138,15.39,3.63-14.95,165.16.61,168.9,16.25,3.91,66.43-168.48,82.28-164.57,13,3.19-9.65,121.4,0,123.42,8.47,1.78,38.77-86.57,59.14-174.85,10.17-44,14.68-74.29,18.31-74,9.48.9-5.3,208.86,7.41,210.23,10.46,1.13,26.75-139.09,51.43-138.85,20.94.2,32.2,101.45,46.28,100.28,15.66-1.3,12-127.38,27.2-128.81,15-1.41,37.75,119.39,42.23,118.53,5.19-1-30.25-162-11.33-168,10.61-3.38,37.78,42.18,52.47,85.71,17.17,50.85,16.07,95.24,18,95.14,3.1-.15-6-113.4,8-116,14.86-2.8,47.21,120.3,53.72,118.61,8-2.06-34.27-188.35-30.22-189.32,3.78-.9,43.55,160,50.79,158.47,5.39-1.16-11.9-91.28-7.51-92.2s35.24,92.1,52.19,204.7C1482.13,1040.44,1467.15,1191.19,1473.07,1191.5Z"/></g></svg>